<?xml version="1.0" standalone="no"?>
<!DOCTYPE svg PUBLIC "-//W3C//DTD SVG 20010904//EN"
 "http://www.w3.org/TR/2001/REC-SVG-20010904/DTD/svg10.dtd">
<svg version="1.0" xmlns="http://www.w3.org/2000/svg"
 width="1152.000000pt" height="896.000000pt" viewBox="0 0 1152.000000 896.000000"
 preserveAspectRatio="xMidYMid meet">

<g transform="translate(0.000000,896.000000) scale(0.100000,-0.100000)"
fill="#2D6A4F" stroke="none"> <!-- Aqui, substituí #000000 pela cor verde do PNG -->
<path d="M5675 7098 c-50 -18 -134 -78 -170 -122 -65 -79 -76 -121 -73 -280
l2 -141 -35 -3 c-101 -8 -163 -98 -129 -187 6 -15 16 -25 23 -22 7 2 21 -7 31
-22 20 -26 20 -26 0 -8 -28 23 -41 22 -19 -3 30 -33 84 -42 145 -24 l53 16 42
-48 c40 -46 42 -52 44 -118 3 -86 11 -103 67 -127 54 -25 121 -26 162 -5 30
16 32 20 32 72 0 47 3 57 20 61 11 3 17 9 14 14 -3 5 4 9 14 9 22 0 45 23 34
34 -4 4 -2 6 3 5 15 -5 56 21 50 30 -3 5 1 11 8 14 8 3 22 30 31 61 17 54 19
56 52 56 47 0 114 54 114 93 0 16 -3 18 -9 9 -7 -11 -9 -11 -14 2 -5 11 -1 16
13 16 25 0 25 10 0 65 -24 52 -60 79 -95 73 -21 -4 -26 -1 -30 21 -3 14 -9 43
-14 64 -6 27 -3 72 11 153 17 100 18 121 6 156 -24 75 -104 95 -250 62 -71
-16 -191 -62 -238 -90 l-25 -15 25 22 c35 31 115 66 199 87 39 10 68 22 64 25
-10 11 -124 7 -158 -5z m234 -412 c15 -18 3 -46 -20 -46 -13 0 -19 7 -19 23 0
37 18 48 39 23z m-204 -26 c0 -18 -6 -26 -23 -28 -24 -4 -38 18 -28 44 3 9 15
14 28 12 17 -2 23 -10 23 -28z m121 -57 c21 -43 43 -81 48 -85 6 -4 -3 -12
-19 -18 -15 -6 -33 -17 -39 -25 -9 -12 -16 -10 -41 11 -29 24 -29 25 -11 39
11 8 26 15 33 15 18 0 16 10 -7 70 -22 56 -24 70 -12 70 5 0 26 -35 48 -77z
m118 -235 c-10 -18 -17 -36 -16 -40 1 -4 -15 -15 -36 -24 -41 -18 -123 -19
-156 -3 -30 16 -76 61 -76 75 0 7 36 16 98 24 53 7 120 15 147 19 58 8 65 -1
39 -51z"/>
<!-- Outros caminhos também podem ser ajustados com cores específicas. -->
</g>
</svg>
